<svg width="80" height="80" viewBox="0 0 80 80" fill="none" xmlns="http://www.w3.org/2000/svg">
<g clip-path="url(#clip0_1920_180)">
<mask id="mask0_1920_180" style="mask-type:luminance" maskUnits="userSpaceOnUse" x="0" y="0" width="80" height="80">
<path d="M80 0H0V80H80V0Z" fill="white"/>
</mask>
<g mask="url(#mask0_1920_180)">
<path d="M69.1159 40.0003C69.1159 23.9467 56.1008 10.9316 40.0472 10.9316C23.9936 10.9316 10.9785 23.9467 10.9785 40.0003C10.9785 56.0539 23.9936 69.069 40.0472 69.069C56.1008 69.069 69.1159 56.0539 69.1159 40.0003Z" fill="#E13A76"/>
</g>
<mask id="mask1_1920_180" style="mask-type:luminance" maskUnits="userSpaceOnUse" x="0" y="0" width="80" height="80">
<path d="M14.0349 66.0113C7.08756 59.0639 3.26348 49.8259 3.26348 40C3.26348 30.174 7.08756 20.936 14.0349 13.9887C20.9822 7.04136 30.2202 3.21257 40.0462 3.21257C49.8721 3.21257 59.1101 7.04136 66.0575 13.9887C73.0048 20.936 76.8289 30.174 76.8289 40C76.8289 49.8259 73.0048 59.0639 66.0575 66.0113C59.1101 72.9586 49.8721 76.7874 40.0462 76.7874C30.2202 76.7874 20.9822 72.9586 14.0349 66.0113ZM0.591797 40C0.591797 61.7874 18.2541 79.4496 40.0415 79.4496C61.8289 79.4496 79.4911 61.7874 79.4911 40C79.4911 18.2126 61.8336 0.550293 40.0415 0.550293C18.2494 0.550293 0.591797 18.2126 0.591797 40Z" fill="white"/>
</mask>
<g mask="url(#mask1_1920_180)">
<path d="M79.4911 0.550293H0.591797V79.4496H79.4911V0.550293Z" fill="url(#paint0_linear_1920_180)"/>
</g>
<mask id="mask2_1920_180" style="mask-type:luminance" maskUnits="userSpaceOnUse" x="0" y="0" width="80" height="80">
<path d="M80 0H0V80H80V0Z" fill="white"/>
</mask>
<g mask="url(#mask2_1920_180)">
<path d="M40.0051 58.2225C35.4895 58.2225 31.1669 56.5527 27.8273 53.5188C24.5112 50.5037 22.4368 46.4021 21.9853 41.9619C21.9524 41.6608 22.1734 41.388 22.4792 41.3598C22.7802 41.3316 23.053 41.548 23.0812 41.8537C23.5046 46.0211 25.4519 49.8735 28.5657 52.7051C31.7031 55.5555 35.7623 57.1218 40.0051 57.1218C49.3842 57.1218 57.0135 49.4925 57.0135 40.1133C57.0135 30.7342 49.3842 23.1049 40.0051 23.1049C39.6899 23.1049 39.3701 23.1143 39.0596 23.1284C38.7539 23.1425 38.4952 22.912 38.4811 22.6063C38.4622 22.3005 38.6974 22.0418 39.0032 22.0277C39.3371 22.0089 39.6758 21.9995 40.0098 21.9995C49.9956 21.9995 58.1236 30.1227 58.1236 40.1133C58.1236 50.1039 50.0003 58.2272 40.0098 58.2272M40.0051 55.2921C32.3098 55.2921 25.8282 49.5395 24.9298 41.9054C24.8922 41.6044 25.1085 41.3269 25.4143 41.294C25.7153 41.2563 25.9928 41.4727 26.0257 41.7784C26.8583 48.8528 32.8696 54.1914 40.0098 54.1914C47.7755 54.1914 54.0878 47.8744 54.0878 40.1133C54.0878 32.3523 47.7708 26.0353 40.0098 26.0353C39.6993 26.0353 39.3795 26.0447 39.069 26.0682C38.768 26.087 38.5046 25.8565 38.4811 25.5555C38.4622 25.2497 38.6927 24.991 38.9938 24.9675C39.3277 24.944 39.6664 24.9346 40.0051 24.9346C48.3776 24.9346 55.1885 31.7455 55.1885 40.118C55.1885 48.4906 48.3776 55.3015 40.0051 55.3015M49.7887 46.5056C49.6946 46.5056 49.5958 46.4821 49.5065 46.4257L39.7228 40.579C39.5582 40.4802 39.4547 40.3015 39.4547 40.1039V30.8095C39.4547 30.5037 39.6993 30.2592 40.0051 30.2592C40.3108 30.2592 40.5554 30.5037 40.5554 30.8095V39.7935L50.0709 45.4802C50.3343 45.6354 50.419 45.9741 50.259 46.2375C50.1556 46.4116 49.9721 46.5056 49.784 46.5056M26.6513 37.8932H15.7906C15.4848 37.8932 15.2402 37.6486 15.2402 37.3429C15.2402 37.0371 15.4895 36.7926 15.7906 36.7926H26.6513C26.9571 36.7926 27.2017 37.0371 27.2017 37.3429C27.2017 37.6486 26.9571 37.8932 26.6513 37.8932ZM30.3719 33.0531H19.5112C19.2054 33.0531 18.9608 32.8085 18.9608 32.5028C18.9608 32.1971 19.2054 31.9525 19.5112 31.9525H30.3719C30.6777 31.9525 30.9223 32.1971 30.9223 32.5028C30.9223 32.8085 30.6777 33.0531 30.3719 33.0531ZM34.958 28.2084H24.0972C23.7915 28.2084 23.5469 27.9638 23.5469 27.658C23.5469 27.3523 23.7915 27.1077 24.0972 27.1077H34.958C35.2638 27.1077 35.5083 27.3523 35.5083 27.658C35.5083 27.9638 35.259 28.2084 34.958 28.2084Z" fill="white"/>
</g>
</g>
<defs>
<linearGradient id="paint0_linear_1920_180" x1="0.510894" y1="40.777" x2="79.1713" y2="40.777" gradientUnits="userSpaceOnUse">
<stop stop-color="#CDCDCE"/>
<stop offset="0.09" stop-color="#8C8C91"/>
<stop offset="0.26" stop-color="#F7F8F8"/>
<stop offset="0.31" stop-color="#F2F3F3"/>
<stop offset="0.36" stop-color="#E6E7E7"/>
<stop offset="0.41" stop-color="#D1D3D3"/>
<stop offset="0.47" stop-color="#B4B6B7"/>
<stop offset="0.52" stop-color="#8F9193"/>
<stop offset="0.55" stop-color="#787A7C"/>
<stop offset="0.61" stop-color="#989999"/>
<stop offset="0.68" stop-color="#BFBDBB"/>
<stop offset="0.72" stop-color="#CECCC9"/>
<stop offset="1" stop-color="#CECCC9"/>
</linearGradient>
<clipPath id="clip0_1920_180">
<rect width="80" height="80" fill="white"/>
</clipPath>
</defs>
</svg>
