<svg width="80" height="80" viewBox="0 0 80 80" fill="none" xmlns="http://www.w3.org/2000/svg">
<g clip-path="url(#clip0_1763_8097)">
<path d="M39.9995 72.0371C57.6928 72.0371 72.0361 57.6938 72.0361 40.0005C72.0361 22.3071 57.6928 7.96387 39.9995 7.96387C22.3062 7.96387 7.96289 22.3071 7.96289 40.0005C7.96289 57.6938 22.3062 72.0371 39.9995 72.0371Z" fill="#E03A75"/>
<path d="M40 80C17.9405 80 0 62.0512 0 40C0 17.9488 17.9405 0 40 0C62.0595 0 80 17.9405 80 40C80 62.0595 62.0595 80 40 80ZM40 3.32848C19.7795 3.32848 3.32848 19.7795 3.32848 40C3.32848 60.2205 19.7795 76.6715 40 76.6715C60.2205 76.6715 76.6715 60.2205 76.6715 40C76.6715 19.7795 60.2205 3.32848 40 3.32848Z" fill="url(#paint0_linear_1763_8097)"/>
<path d="M20.834 46.0672C20.834 46.0672 20.834 46.178 20.834 46.2413V51.1637C20.834 55.2155 26.7351 58.3968 34.2674 58.3968C37.29 58.3968 40.2165 57.8428 42.5674 56.8615C43.9907 57.463 45.5739 57.7954 47.2211 57.7954C53.8099 57.7954 59.1673 52.4932 59.1673 45.9723C59.1673 39.4514 54.3377 34.7031 48.1967 34.1966V30.1923C48.1967 25.9189 42.1836 22.5635 34.5073 22.5635C26.8311 22.5635 20.834 25.9031 20.834 30.1765V35.906C20.834 35.906 20.834 35.9535 20.834 35.9851C20.834 36.0485 20.834 36.0959 20.834 36.1593V40.955C20.834 40.955 20.834 41.0024 20.834 41.0341C20.834 41.0974 20.834 41.1449 20.834 41.2082V46.0039C20.834 46.0039 20.834 46.0514 20.834 46.0831V46.0672ZM34.2834 57.1148C27.6946 57.1148 22.1294 54.3766 22.1294 51.1478V49.1852C24.2563 51.6227 28.8301 53.2845 34.2674 53.2845C35.4349 53.2845 36.5703 53.1896 37.6898 53.0471C38.6013 54.25 39.7528 55.2788 41.0481 56.0702C39.0491 56.7349 36.7143 57.1306 34.2834 57.1306V57.1148ZM57.9039 45.9564C57.9039 51.7809 53.1223 56.5133 47.2371 56.5133C41.352 56.5133 36.5703 51.7809 36.5703 45.9564C36.5703 40.1319 41.352 35.3995 47.2371 35.3995C53.1223 35.3995 57.9039 40.1319 57.9039 45.9564ZM34.5393 23.8138C41.256 23.8138 46.9333 26.7261 46.9333 30.1765C46.9333 33.6269 41.256 36.5391 34.5393 36.5391C27.8226 36.5391 22.1294 33.6269 22.1294 30.1765C22.1294 26.7261 27.8066 23.8138 34.5393 23.8138ZM34.5393 37.8053C36.1225 37.8053 37.6258 37.6629 39.0171 37.3938C37.7058 38.6283 36.6823 40.1319 36.0426 41.8413C35.4189 41.8888 34.7472 41.9363 34.2674 41.9363C27.7746 41.9363 22.2893 39.2931 22.1294 36.1276V33.4369C24.2883 36.0326 28.958 37.8053 34.5233 37.8053H34.5393ZM34.2674 43.2025C34.6513 43.2025 35.147 43.1708 35.6268 43.1392C35.4029 44.0413 35.275 44.9751 35.275 45.9564C35.275 46.2888 35.2909 46.6212 35.3229 46.9377C34.9711 46.9536 34.6193 46.9694 34.2674 46.9694C27.7746 46.9694 22.2893 44.3262 22.1294 41.1607V39.1032C24.2563 41.5406 28.8301 43.2025 34.2674 43.2025ZM34.2674 48.2514C34.6832 48.2514 35.099 48.2356 35.4988 48.2039C35.7547 49.5176 36.2345 50.7522 36.8902 51.8601C36.0266 51.955 35.147 52.0184 34.2674 52.0184C27.7746 52.0184 22.2893 49.3752 22.1294 46.2097V44.1521C24.2563 46.5895 28.8301 48.2514 34.2674 48.2514Z" fill="white"/>
<path d="M38.3774 45.9564C38.3774 50.7838 42.3435 54.7248 47.2371 54.7248C52.1307 54.7248 56.0968 50.7996 56.0968 45.9564C56.0968 41.1132 52.1307 37.188 47.2371 37.188C42.3435 37.188 38.3774 41.1132 38.3774 45.9564ZM54.8014 45.9564C54.8014 50.0874 51.4111 53.4586 47.2211 53.4586C43.0312 53.4586 39.6408 50.1032 39.6408 45.9564C39.6408 41.8096 43.0312 38.4542 47.2211 38.4542C51.4111 38.4542 54.8014 41.8096 54.8014 45.9564Z" fill="white"/>
<path d="M46.5335 41.1449V41.2715C45.0302 41.5089 43.8788 42.601 43.8788 43.8989C43.8788 45.1967 45.0302 46.3046 46.5335 46.5262V49.3119C45.7818 49.1061 45.2381 48.5996 45.2381 47.9982C45.2381 47.65 44.9502 47.3651 44.5984 47.3651C44.2466 47.3651 43.9587 47.65 43.9587 47.9982C43.9587 49.2802 45.0622 50.3565 46.5335 50.6255V50.768C46.5335 51.1162 46.8213 51.4011 47.1732 51.4011C47.525 51.4011 47.8128 51.1162 47.8128 50.768V50.6414C49.3161 50.4039 50.4676 49.3119 50.4676 48.014C50.4676 46.7162 49.3161 45.6082 47.8128 45.3867V42.601C48.5645 42.8068 49.1082 43.3133 49.1082 43.9147C49.1082 44.2629 49.3961 44.5478 49.7479 44.5478C50.0997 44.5478 50.3876 44.2629 50.3876 43.9147C50.3876 42.6327 49.2841 41.5564 47.8128 41.2873V41.1449C47.8128 40.7967 47.525 40.5118 47.1732 40.5118C46.8213 40.5118 46.5335 40.7967 46.5335 41.1449ZM45.1421 43.9147C45.1421 43.2974 45.7339 42.7751 46.5175 42.5852V45.2442C45.7339 45.0543 45.1421 44.532 45.1421 43.9147ZM49.1882 48.014C49.1882 48.6313 48.5965 49.1536 47.8128 49.3435V46.6845C48.5965 46.8744 49.1882 47.3967 49.1882 48.014Z" fill="white"/>
</g>
<defs>
<linearGradient id="paint0_linear_1763_8097" x1="0" y1="40" x2="80" y2="40" gradientUnits="userSpaceOnUse">
<stop stop-color="#BEBFC0"/>
<stop offset="0.05" stop-color="#AFB0B1"/>
<stop offset="0.14" stop-color="#888A8A"/>
<stop offset="0.18" stop-color="#767878"/>
<stop offset="0.28" stop-color="#B4B5B5"/>
<stop offset="0.33" stop-color="#CACBCB"/>
<stop offset="0.41" stop-color="#E4E4E4"/>
<stop offset="0.48" stop-color="#F4F4F4"/>
<stop offset="0.53" stop-color="#FAFAFA"/>
<stop offset="0.88" stop-color="#767878"/>
<stop offset="1" stop-color="#9FA0A0"/>
</linearGradient>
<clipPath id="clip0_1763_8097">
<rect width="80" height="80" fill="white"/>
</clipPath>
</defs>
</svg>
