<svg width="40" height="40" viewBox="0 0 40 40" fill="none" xmlns="http://www.w3.org/2000/svg">
<path d="M33.2378 0.833496H7.5968C6.62565 0.834301 5.83398 1.62915 5.83398 2.6052V37.3951C5.83398 38.3712 6.62565 39.166 7.5968 39.1668H33.2378C34.2082 39.166 34.999 38.3712 35.0007 37.3951V2.6052C34.999 1.62915 34.2082 0.834301 33.2378 0.833496ZM34.0391 37.3951C34.0383 37.8389 33.6793 38.1996 33.2378 38.2004H7.5968C7.1553 38.1996 6.79552 37.8389 6.79552 37.3951V2.6052C6.79552 2.16147 7.1553 1.80069 7.5968 1.79988H33.2378C33.6793 1.80069 34.0383 2.16147 34.0391 2.6052V37.3951Z" fill="#036761"/>
<path d="M31.9558 8.56459H8.87886C8.61363 8.56459 8.39809 8.78122 8.39809 9.04778V16.7789C8.39809 17.0454 8.61363 17.2621 8.87886 17.2621H31.9558C32.221 17.2621 32.4365 17.0454 32.4365 16.7789V9.04778C32.4365 8.78122 32.221 8.56459 31.9558 8.56459ZM31.475 16.2957H9.35963V9.53098H31.475V16.2957Z" fill="#036761"/>
<path d="M31.9558 3.41053H24.2635C23.9982 3.41053 23.7827 3.62716 23.7827 3.89372V6.47075C23.7827 6.73731 23.9982 6.95394 24.2635 6.95394H31.9558C32.221 6.95394 32.4365 6.73731 32.4365 6.47075V3.89372C32.4365 3.62716 32.221 3.41053 31.9558 3.41053ZM31.475 5.98756H24.7442V4.37691H31.475V5.98756Z" fill="#036761"/>
<path d="M31.9558 25.3153H28.1096C27.8444 25.3153 27.6289 25.5319 27.6289 25.7985V36.1066C27.6289 36.3732 27.8444 36.5898 28.1096 36.5898H31.9558C32.221 36.5898 32.4366 36.3732 32.4366 36.1066V25.7985C32.4366 25.5319 32.221 25.3153 31.9558 25.3153ZM31.475 35.6234H28.5904V26.2817H31.475V35.6234Z" fill="#036761"/>
<path d="M12.725 31.7579H8.87886C8.61363 31.7579 8.39809 31.9745 8.39809 32.2411V36.1066C8.39809 36.3732 8.61363 36.5898 8.87886 36.5898H12.725C12.9902 36.5898 13.2058 36.3732 13.2058 36.1066V32.2411C13.2058 31.9745 12.9902 31.7579 12.725 31.7579ZM12.2442 35.6234H9.35963V32.7243H12.2442V35.6234Z" fill="#036761"/>
<path d="M19.1353 31.7579H15.2891C15.0239 31.7579 14.8083 31.9745 14.8083 32.2411V36.1066C14.8083 36.3732 15.0239 36.5898 15.2891 36.5898H19.1353C19.4005 36.5898 19.616 36.3732 19.616 36.1066V32.2411C19.616 31.9745 19.4005 31.7579 19.1353 31.7579ZM18.6545 35.6234H15.7699V32.7243H18.6545V35.6234Z" fill="#036761"/>
<path d="M25.5455 31.7579H21.6994C21.4341 31.7579 21.2186 31.9745 21.2186 32.2411V36.1066C21.2186 36.3732 21.4341 36.5898 21.6994 36.5898H25.5455C25.8107 36.5898 26.0263 36.3732 26.0263 36.1066V32.2411C26.0263 31.9745 25.8107 31.7579 25.5455 31.7579ZM25.0648 35.6234H22.1801V32.7243H25.0648V35.6234Z" fill="#036761"/>
<path d="M12.725 25.3153H8.87886C8.61363 25.3153 8.39809 25.5319 8.39809 25.7985V29.664C8.39809 29.9306 8.61363 30.1472 8.87886 30.1472H12.725C12.9902 30.1472 13.2058 29.9306 13.2058 29.664V25.7985C13.2058 25.5319 12.9902 25.3153 12.725 25.3153ZM12.2442 29.1808H9.35963V26.2817H12.2442V29.1808Z" fill="#036761"/>
<path d="M19.1353 25.3153H15.2891C15.0239 25.3153 14.8083 25.5319 14.8083 25.7985V29.664C14.8083 29.9306 15.0239 30.1472 15.2891 30.1472H19.1353C19.4005 30.1472 19.616 29.9306 19.616 29.664V25.7985C19.616 25.5319 19.4005 25.3153 19.1353 25.3153ZM18.6545 29.1808H15.7699V26.2817H18.6545V29.1808Z" fill="#036761"/>
<path d="M25.5455 25.3153H21.6994C21.4341 25.3153 21.2186 25.5319 21.2186 25.7985V29.664C21.2186 29.9306 21.4341 30.1472 21.6994 30.1472H25.5455C25.8107 30.1472 26.0263 29.9306 26.0263 29.664V25.7985C26.0263 25.5319 25.8107 25.3153 25.5455 25.3153ZM25.0648 29.1808H22.1801V26.2817H25.0648V29.1808Z" fill="#036761"/>
<path d="M12.725 18.8727H8.87886C8.61363 18.8727 8.39809 19.0893 8.39809 19.3559V23.2215C8.39809 23.488 8.61363 23.7046 8.87886 23.7046H12.725C12.9902 23.7046 13.2058 23.488 13.2058 23.2215V19.3559C13.2058 19.0893 12.9902 18.8727 12.725 18.8727ZM12.2442 22.7383H9.35963V19.8391H12.2442V22.7383Z" fill="#036761"/>
<path d="M19.1353 18.8727H15.2891C15.0239 18.8727 14.8083 19.0893 14.8083 19.3559V23.2215C14.8083 23.488 15.0239 23.7046 15.2891 23.7046H19.1353C19.4005 23.7046 19.616 23.488 19.616 23.2215V19.3559C19.616 19.0893 19.4005 18.8727 19.1353 18.8727ZM18.6545 22.7383H15.7699V19.8391H18.6545V22.7383Z" fill="#036761"/>
<path d="M25.5455 18.8727H21.6994C21.4341 18.8727 21.2186 19.0893 21.2186 19.3559V23.2215C21.2186 23.488 21.4341 23.7046 21.6994 23.7046H25.5455C25.8107 23.7046 26.0263 23.488 26.0263 23.2215V19.3559C26.0263 19.0893 25.8107 18.8727 25.5455 18.8727ZM25.0648 22.7383H22.1801V19.8391H25.0648V22.7383Z" fill="#036761"/>
<path d="M30.0327 18.8727C28.7074 18.8727 27.6289 19.9567 27.6289 21.2887C27.6289 22.6207 28.7074 23.7046 30.0327 23.7046C31.358 23.7046 32.4366 22.6207 32.4366 21.2887C32.4349 19.9583 31.3564 18.8743 30.0327 18.8727ZM30.0327 22.7383C29.237 22.7383 28.5904 22.0884 28.5904 21.2887C28.5904 20.489 29.237 19.8391 30.0327 19.8391C30.8284 19.8391 31.475 20.489 31.475 21.2887C31.4742 22.0876 30.8276 22.7375 30.0327 22.7383Z" fill="#036761"/>
<path d="M10.1609 3.41053C9.18895 3.41053 8.39809 4.20538 8.39809 5.18224C8.39809 6.15829 9.18975 6.95314 10.1609 6.95394C11.1329 6.95394 11.9237 6.15909 11.9237 5.18224C11.9237 4.20538 11.1329 3.41053 10.1609 3.41053ZM10.1609 5.98756C9.7186 5.98756 9.35963 5.62597 9.35963 5.18224C9.35963 4.7385 9.7194 4.37772 10.1609 4.37691C10.6024 4.37691 10.9622 4.7385 10.9622 5.18224C10.9622 5.62597 10.6024 5.98756 10.1609 5.98756Z" fill="#036761"/>
<path d="M15.2891 3.41053C14.3172 3.41053 13.5263 4.20538 13.5263 5.18224C13.5263 6.15829 14.318 6.95314 15.2891 6.95394C16.2611 6.95394 17.0519 6.15909 17.0519 5.18224C17.0519 4.20538 16.2611 3.41053 15.2891 3.41053ZM15.2891 5.98756C14.8468 5.98756 14.4878 5.62597 14.4878 5.18224C14.4878 4.7385 14.8476 4.37772 15.2891 4.37691C15.7306 4.37691 16.0904 4.7385 16.0904 5.18224C16.0904 5.62597 15.7306 5.98756 15.2891 5.98756Z" fill="#036761"/>
</svg>
