<svg width="39" height="36" viewBox="0 0 39 36" fill="none" xmlns="http://www.w3.org/2000/svg">
<path d="M0 23.5038C0 23.5038 0 23.6145 0 23.6779V28.6002C0 32.652 5.90113 35.8333 13.4335 35.8333C16.456 35.8333 19.3826 35.2794 21.7334 34.2981C23.1567 34.8995 24.74 35.2319 26.3872 35.2319C32.9759 35.2319 38.3333 29.9297 38.3333 23.4088C38.3333 16.8879 33.5037 12.1396 27.3627 11.6332V7.62883C27.3627 3.35542 21.3496 0 13.6733 0C5.99708 0 0 3.33959 0 7.613V13.3425C0 13.3425 0 13.39 0 13.4217C0 13.485 0 13.5325 0 13.5958V18.3915C0 18.3915 0 18.439 0 18.4706C0 18.5339 0 18.5814 0 18.6447V23.4404C0 23.4404 0 23.4879 0 23.5196V23.5038ZM13.4495 34.5513C6.86066 34.5513 1.29537 31.8132 1.29537 28.5844V26.6218C3.42233 29.0592 7.99611 30.7211 13.4335 30.7211C14.6009 30.7211 15.7363 30.6261 16.8558 30.4837C17.7673 31.6865 18.9188 32.7153 20.2142 33.5067C18.2151 34.1715 15.8803 34.5671 13.4495 34.5671V34.5513ZM37.0699 23.393C37.0699 29.2175 32.2883 33.9499 26.4031 33.9499C20.518 33.9499 15.7363 29.2175 15.7363 23.393C15.7363 17.5685 20.518 12.8361 26.4031 12.8361C32.2883 12.8361 37.0699 17.5685 37.0699 23.393ZM13.7053 1.25037C20.4221 1.25037 26.0993 4.16262 26.0993 7.613C26.0993 11.0634 20.4221 13.9756 13.7053 13.9756C6.9886 13.9756 1.29537 11.0634 1.29537 7.613C1.29537 4.16262 6.9726 1.25037 13.7053 1.25037ZM13.7053 15.2418C15.2886 15.2418 16.7918 15.0994 18.1831 14.8303C16.8718 16.0649 15.8483 17.5685 15.2086 19.2778C14.5849 19.3253 13.9132 19.3728 13.4335 19.3728C6.94062 19.3728 1.45529 16.7296 1.29537 13.5641V10.8735C3.45432 13.4692 8.12404 15.2418 13.6893 15.2418H13.7053ZM13.4335 20.639C13.8173 20.639 14.313 20.6073 14.7928 20.5757C14.5689 21.4778 14.441 22.4117 14.441 23.393C14.441 23.7253 14.457 24.0577 14.4889 24.3743C14.1371 24.3901 13.7853 24.4059 13.4335 24.4059C6.94062 24.4059 1.45529 21.7627 1.29537 18.5972V16.5397C3.42233 18.9771 7.99611 20.639 13.4335 20.639ZM13.4335 25.6879C13.8493 25.6879 14.2651 25.6721 14.6649 25.6405C14.9207 26.9541 15.4005 28.1887 16.0562 29.2966C15.1926 29.3916 14.313 29.4549 13.4335 29.4549C6.94062 29.4549 1.45529 26.8117 1.29537 23.6462V21.5886C3.42233 24.0261 7.99611 25.6879 13.4335 25.6879Z" fill="#036761"/>
<path d="M17.5435 23.393C17.5435 28.2203 21.5095 32.1614 26.4031 32.1614C31.2968 32.1614 35.2628 28.2362 35.2628 23.393C35.2628 18.5498 31.2968 14.6246 26.4031 14.6246C21.5095 14.6246 17.5435 18.5498 17.5435 23.393ZM33.9675 23.393C33.9675 27.5239 30.5771 30.8952 26.3872 30.8952C22.1972 30.8952 18.8068 27.5398 18.8068 23.393C18.8068 19.2462 22.1972 15.8908 26.3872 15.8908C30.5771 15.8908 33.9675 19.2462 33.9675 23.393Z" fill="#036761"/>
<path d="M25.6995 18.5814V18.708C24.1962 18.9454 23.0448 20.0375 23.0448 21.3354C23.0448 22.6332 24.1962 23.7412 25.6995 23.9627V26.7484C24.9479 26.5426 24.4041 26.0361 24.4041 25.4347C24.4041 25.0865 24.1163 24.8016 23.7644 24.8016C23.4126 24.8016 23.1247 25.0865 23.1247 25.4347C23.1247 26.7167 24.2282 27.793 25.6995 28.0621V28.2045C25.6995 28.5527 25.9873 28.8376 26.3392 28.8376C26.691 28.8376 26.9789 28.5527 26.9789 28.2045V28.0779C28.4821 27.8405 29.6336 26.7484 29.6336 25.4505C29.6336 24.1527 28.4821 23.0448 26.9789 22.8232V20.0375C27.7305 20.2433 28.2742 20.7498 28.2742 21.3512C28.2742 21.6994 28.5621 21.9843 28.9139 21.9843C29.2657 21.9843 29.5536 21.6994 29.5536 21.3512C29.5536 20.0692 28.4501 18.9929 26.9789 18.7239V18.5814C26.9789 18.2332 26.691 17.9483 26.3392 17.9483C25.9873 17.9483 25.6995 18.2332 25.6995 18.5814ZM24.3082 21.3512C24.3082 20.734 24.8999 20.2116 25.6835 20.0217V22.6807C24.8999 22.4908 24.3082 21.9685 24.3082 21.3512ZM28.3542 25.4505C28.3542 26.0678 27.7625 26.5901 26.9789 26.78V24.121C27.7625 24.311 28.3542 24.8333 28.3542 25.4505Z" fill="#036761"/>
</svg>
