<svg width="80" height="80" viewBox="0 0 80 80" fill="none" xmlns="http://www.w3.org/2000/svg">
<g clip-path="url(#clip0_1763_8105)">
<path d="M39.9995 72.0371C57.6928 72.0371 72.0361 57.6938 72.0361 40.0005C72.0361 22.3071 57.6928 7.96387 39.9995 7.96387C22.3062 7.96387 7.96289 22.3071 7.96289 40.0005C7.96289 57.6938 22.3062 72.0371 39.9995 72.0371Z" fill="#E03A75"/>
<path d="M40 80C17.9405 80 0 62.0512 0 40C0 17.9488 17.9405 0 40 0C62.0595 0 80 17.9405 80 40C80 62.0595 62.0595 80 40 80ZM40 3.32848C19.7795 3.32848 3.32848 19.7795 3.32848 40C3.32848 60.2205 19.7795 76.6715 40 76.6715C60.2205 76.6715 76.6715 60.2205 76.6715 40C76.6715 19.7795 60.2205 3.32848 40 3.32848Z" fill="url(#paint0_linear_1763_8105)"/>
<path d="M53.2378 20.897H27.5968C26.6257 20.8978 25.834 21.6926 25.834 22.6687V57.4586C25.834 58.4346 26.6257 59.2295 27.5968 59.2303H53.2378C54.2082 59.2295 54.999 58.4346 55.0007 57.4586V22.6687C54.999 21.6926 54.2082 20.8978 53.2378 20.897ZM54.0391 57.4586C54.0383 57.9023 53.6793 58.2631 53.2378 58.2639H27.5968C27.1553 58.2631 26.7955 57.9023 26.7955 57.4586V22.6687C26.7955 22.2249 27.1553 21.8642 27.5968 21.8634H53.2378C53.6793 21.8642 54.0383 22.2249 54.0391 22.6687V57.4586Z" fill="white"/>
<path d="M51.9558 28.6281H28.8789C28.6136 28.6281 28.3981 28.8447 28.3981 29.1113V36.8424C28.3981 37.1089 28.6136 37.3255 28.8789 37.3255H51.9558C52.221 37.3255 52.4365 37.1089 52.4365 36.8424V29.1113C52.4365 28.8447 52.221 28.6281 51.9558 28.6281ZM51.475 36.3592H29.3596V29.5945H51.475V36.3592Z" fill="white"/>
<path d="M51.9558 23.474H44.2635C43.9982 23.474 43.7827 23.6906 43.7827 23.9572V26.5342C43.7827 26.8008 43.9982 27.0174 44.2635 27.0174H51.9558C52.221 27.0174 52.4365 26.8008 52.4365 26.5342V23.9572C52.4365 23.6906 52.221 23.474 51.9558 23.474ZM51.475 26.051H44.7442V24.4404H51.475V26.051Z" fill="white"/>
<path d="M51.9558 45.3788H48.1096C47.8444 45.3788 47.6289 45.5954 47.6289 45.862V56.1701C47.6289 56.4366 47.8444 56.6533 48.1096 56.6533H51.9558C52.221 56.6533 52.4366 56.4366 52.4366 56.1701V45.862C52.4366 45.5954 52.221 45.3788 51.9558 45.3788ZM51.475 55.6869H48.5904V46.3452H51.475V55.6869Z" fill="white"/>
<path d="M32.725 51.8213H28.8789C28.6136 51.8213 28.3981 52.038 28.3981 52.3045V56.1701C28.3981 56.4366 28.6136 56.6533 28.8789 56.6533H32.725C32.9902 56.6533 33.2058 56.4366 33.2058 56.1701V52.3045C33.2058 52.038 32.9902 51.8213 32.725 51.8213ZM32.2442 55.6869H29.3596V52.7877H32.2442V55.6869Z" fill="white"/>
<path d="M39.1353 51.8213H35.2891C35.0239 51.8213 34.8083 52.038 34.8083 52.3045V56.1701C34.8083 56.4366 35.0239 56.6533 35.2891 56.6533H39.1353C39.4005 56.6533 39.616 56.4366 39.616 56.1701V52.3045C39.616 52.038 39.4005 51.8213 39.1353 51.8213ZM38.6545 55.6869H35.7699V52.7877H38.6545V55.6869Z" fill="white"/>
<path d="M45.5455 51.8213H41.6994C41.4341 51.8213 41.2186 52.038 41.2186 52.3045V56.1701C41.2186 56.4366 41.4341 56.6533 41.6994 56.6533H45.5455C45.8107 56.6533 46.0263 56.4366 46.0263 56.1701V52.3045C46.0263 52.038 45.8107 51.8213 45.5455 51.8213ZM45.0648 55.6869H42.1801V52.7877H45.0648V55.6869Z" fill="white"/>
<path d="M32.725 45.3788H28.8789C28.6136 45.3788 28.3981 45.5954 28.3981 45.862V49.7275C28.3981 49.9941 28.6136 50.2107 28.8789 50.2107H32.725C32.9902 50.2107 33.2058 49.9941 33.2058 49.7275V45.862C33.2058 45.5954 32.9902 45.3788 32.725 45.3788ZM32.2442 49.2443H29.3596V46.3452H32.2442V49.2443Z" fill="white"/>
<path d="M39.1353 45.3788H35.2891C35.0239 45.3788 34.8083 45.5954 34.8083 45.862V49.7275C34.8083 49.9941 35.0239 50.2107 35.2891 50.2107H39.1353C39.4005 50.2107 39.616 49.9941 39.616 49.7275V45.862C39.616 45.5954 39.4005 45.3788 39.1353 45.3788ZM38.6545 49.2443H35.7699V46.3452H38.6545V49.2443Z" fill="white"/>
<path d="M45.5455 45.3788H41.6994C41.4341 45.3788 41.2186 45.5954 41.2186 45.862V49.7275C41.2186 49.9941 41.4341 50.2107 41.6994 50.2107H45.5455C45.8107 50.2107 46.0263 49.9941 46.0263 49.7275V45.862C46.0263 45.5954 45.8107 45.3788 45.5455 45.3788ZM45.0648 49.2443H42.1801V46.3452H45.0648V49.2443Z" fill="white"/>
<path d="M32.725 38.9362H28.8789C28.6136 38.9362 28.3981 39.1528 28.3981 39.4194V43.2849C28.3981 43.5515 28.6136 43.7681 28.8789 43.7681H32.725C32.9902 43.7681 33.2058 43.5515 33.2058 43.2849V39.4194C33.2058 39.1528 32.9902 38.9362 32.725 38.9362ZM32.2442 42.8017H29.3596V39.9026H32.2442V42.8017Z" fill="white"/>
<path d="M39.1353 38.9362H35.2891C35.0239 38.9362 34.8083 39.1528 34.8083 39.4194V43.2849C34.8083 43.5515 35.0239 43.7681 35.2891 43.7681H39.1353C39.4005 43.7681 39.616 43.5515 39.616 43.2849V39.4194C39.616 39.1528 39.4005 38.9362 39.1353 38.9362ZM38.6545 42.8017H35.7699V39.9026H38.6545V42.8017Z" fill="white"/>
<path d="M45.5455 38.9362H41.6994C41.4341 38.9362 41.2186 39.1528 41.2186 39.4194V43.2849C41.2186 43.5515 41.4341 43.7681 41.6994 43.7681H45.5455C45.8107 43.7681 46.0263 43.5515 46.0263 43.2849V39.4194C46.0263 39.1528 45.8107 38.9362 45.5455 38.9362ZM45.0648 42.8017H42.1801V39.9026H45.0648V42.8017Z" fill="white"/>
<path d="M50.0327 38.9362C48.7074 38.9362 47.6289 40.0202 47.6289 41.3522C47.6289 42.6842 48.7074 43.7681 50.0327 43.7681C51.358 43.7681 52.4366 42.6842 52.4366 41.3522C52.4349 40.0218 51.3564 38.9378 50.0327 38.9362ZM50.0327 42.8017C49.237 42.8017 48.5904 42.1518 48.5904 41.3522C48.5904 40.5525 49.237 39.9026 50.0327 39.9026C50.8284 39.9026 51.475 40.5525 51.475 41.3522C51.4742 42.151 50.8276 42.8009 50.0327 42.8017Z" fill="white"/>
<path d="M30.1609 23.474C29.189 23.474 28.3981 24.2689 28.3981 25.2457C28.3981 26.2218 29.1898 27.0166 30.1609 27.0174C31.1329 27.0174 31.9237 26.2226 31.9237 25.2457C31.9237 24.2689 31.1329 23.474 30.1609 23.474ZM30.1609 26.051C29.7186 26.051 29.3596 25.6894 29.3596 25.2457C29.3596 24.802 29.7194 24.4412 30.1609 24.4404C30.6024 24.4404 30.9622 24.802 30.9622 25.2457C30.9622 25.6894 30.6024 26.051 30.1609 26.051Z" fill="white"/>
<path d="M35.2891 23.474C34.3172 23.474 33.5263 24.2689 33.5263 25.2457C33.5263 26.2218 34.318 27.0166 35.2891 27.0174C36.2611 27.0174 37.0519 26.2226 37.0519 25.2457C37.0519 24.2689 36.2611 23.474 35.2891 23.474ZM35.2891 26.051C34.8468 26.051 34.4878 25.6894 34.4878 25.2457C34.4878 24.802 34.8476 24.4412 35.2891 24.4404C35.7306 24.4404 36.0904 24.802 36.0904 25.2457C36.0904 25.6894 35.7306 26.051 35.2891 26.051Z" fill="white"/>
</g>
<defs>
<linearGradient id="paint0_linear_1763_8105" x1="0" y1="40" x2="80" y2="40" gradientUnits="userSpaceOnUse">
<stop stop-color="#BEBFC0"/>
<stop offset="0.05" stop-color="#AFB0B1"/>
<stop offset="0.14" stop-color="#888A8A"/>
<stop offset="0.18" stop-color="#767878"/>
<stop offset="0.28" stop-color="#B4B5B5"/>
<stop offset="0.33" stop-color="#CACBCB"/>
<stop offset="0.41" stop-color="#E4E4E4"/>
<stop offset="0.48" stop-color="#F4F4F4"/>
<stop offset="0.53" stop-color="#FAFAFA"/>
<stop offset="0.88" stop-color="#767878"/>
<stop offset="1" stop-color="#9FA0A0"/>
</linearGradient>
<clipPath id="clip0_1763_8105">
<rect width="80" height="80" fill="white"/>
</clipPath>
</defs>
</svg>
