<svg width="80" height="80" viewBox="0 0 80 80" fill="none" xmlns="http://www.w3.org/2000/svg">
<g clip-path="url(#clip0_1758_7031)">
<path d="M39.9995 72.0371C57.6928 72.0371 72.0361 57.6938 72.0361 40.0005C72.0361 22.3071 57.6928 7.96387 39.9995 7.96387C22.3062 7.96387 7.96289 22.3071 7.96289 40.0005C7.96289 57.6938 22.3062 72.0371 39.9995 72.0371Z" fill="#E03A75"/>
<path d="M40 80C17.9405 80 0 62.0512 0 40C0 17.9488 17.9405 0 40 0C62.0595 0 80 17.9405 80 40C80 62.0595 62.0595 80 40 80ZM40 3.32848C19.7795 3.32848 3.32848 19.7795 3.32848 40C3.32848 60.2205 19.7795 76.6715 40 76.6715C60.2205 76.6715 76.6715 60.2205 76.6715 40C76.6715 19.7795 60.2205 3.32848 40 3.32848Z" fill="url(#paint0_linear_1758_7031)"/>
<path d="M58.829 33.0018L47.7896 21.9624C46.7425 20.9153 45.0388 20.9153 43.9917 21.9624L21.8623 44.0918C20.8153 45.1389 20.8153 46.8426 21.8623 47.8897L32.9017 58.9291C33.9488 59.9762 35.6526 59.9762 36.6997 58.9291L58.829 36.7998C59.8761 35.7527 59.8761 34.0489 58.829 33.0018ZM35.9401 58.1695C35.3119 58.7977 34.2895 58.7977 33.6613 58.1695L22.6219 47.1301C21.9937 46.5019 21.9937 45.4795 22.6219 44.8513L44.7512 22.722C45.3794 22.0938 46.4018 22.0938 47.03 22.722L58.0694 33.7614C58.6976 34.3896 58.6976 35.412 58.0694 36.0402L35.9401 58.1695Z" fill="white"/>
<path d="M49.2009 38.2365L42.5545 31.5902C41.1341 30.1697 38.8227 30.1697 37.4023 31.5902C35.9819 33.0106 35.9819 35.322 37.4023 36.7424L44.0486 43.3888C45.4691 44.8092 47.7805 44.8092 49.2009 43.3888C50.6213 41.9683 50.6213 39.6569 49.2009 38.2365ZM38.1619 32.3497C39.1638 31.3479 40.7934 31.3482 41.795 32.3497L44.7383 35.2931L41.1049 38.9266L38.1615 35.9832C37.1596 34.9813 37.16 33.3516 38.1615 32.3501L38.1619 32.3497ZM44.8082 42.6292L41.8648 39.6858L45.4983 36.0523L48.4417 38.9957C49.4436 39.9976 49.4432 41.6273 48.4417 42.6288C47.4402 43.6303 45.8101 43.6303 44.8086 42.6288L44.8082 42.6292Z" fill="white"/>
<path d="M43.2891 44.1484L36.6427 37.502C35.2223 36.0816 32.9109 36.0816 31.4904 37.502C30.07 38.9224 30.07 41.2338 31.4904 42.6543L38.1368 49.3006C39.5572 50.721 41.8686 50.721 43.2891 49.3006C44.7095 47.8802 44.7095 45.5688 43.2891 44.1484ZM32.2496 38.262C33.2515 37.2601 34.8812 37.2604 35.8827 38.262L38.8261 41.2053L35.1926 44.8388L32.2493 41.8954C31.2474 40.8935 31.2478 39.2639 32.2493 38.2623L32.2496 38.262ZM38.896 48.5414L35.9526 45.598L39.5861 41.9646L42.5295 44.9079C43.5314 45.9098 43.531 47.5395 42.5295 48.541C41.528 49.5425 39.8979 49.5425 38.8964 48.541L38.896 48.5414Z" fill="white"/>
<path d="M37.3768 50.0606L30.7305 43.4142C29.3101 41.9938 26.9986 41.9938 25.5782 43.4142C24.1578 44.8346 24.1578 47.146 25.5782 48.5665L32.2246 55.2128C33.645 56.6332 35.9564 56.6333 37.3768 55.2128C38.7973 53.7924 38.7973 51.481 37.3768 50.0606ZM26.3378 44.1738C27.3397 43.1719 28.9694 43.1723 29.9709 44.1738L32.9143 47.1172L29.2808 50.7507L26.3374 47.8073C25.3355 46.8054 25.3359 45.1757 26.3374 44.1742L26.3378 44.1738ZM32.9838 54.4536L30.0404 51.5102L33.6739 47.8768L36.6172 50.8202C37.6191 51.822 37.6188 53.4517 36.6172 54.4532C35.6157 55.4548 33.9857 55.4548 32.9842 54.4532L32.9838 54.4536Z" fill="white"/>
<path d="M55.1131 32.3243L48.4668 25.6779C47.0463 24.2575 44.7349 24.2575 43.3145 25.6779C41.8941 27.0984 41.8941 29.4098 43.3145 30.8302L49.9609 37.4766C51.3813 38.897 53.6927 38.897 55.1131 37.4766C56.5335 36.0561 56.5335 33.7447 55.1131 32.3243ZM44.0741 26.4375C45.076 25.4356 46.7057 25.436 47.7072 26.4375L50.6506 29.3809L47.0171 33.0144L44.0737 30.071C43.0718 29.0691 43.0722 27.4394 44.0737 26.4379L44.0741 26.4375ZM50.7201 36.7173L47.7767 33.774L51.4101 30.1405L54.3535 33.0839C55.3554 34.0858 55.355 35.7155 54.3535 36.717C53.352 37.7185 51.7219 37.7185 50.7204 36.717L50.7201 36.7173Z" fill="white"/>
</g>
<defs>
<linearGradient id="paint0_linear_1758_7031" x1="0" y1="40" x2="80" y2="40" gradientUnits="userSpaceOnUse">
<stop stop-color="#BEBFC0"/>
<stop offset="0.05" stop-color="#AFB0B1"/>
<stop offset="0.14" stop-color="#888A8A"/>
<stop offset="0.18" stop-color="#767878"/>
<stop offset="0.28" stop-color="#B4B5B5"/>
<stop offset="0.33" stop-color="#CACBCB"/>
<stop offset="0.41" stop-color="#E4E4E4"/>
<stop offset="0.48" stop-color="#F4F4F4"/>
<stop offset="0.53" stop-color="#FAFAFA"/>
<stop offset="0.88" stop-color="#767878"/>
<stop offset="1" stop-color="#9FA0A0"/>
</linearGradient>
<clipPath id="clip0_1758_7031">
<rect width="80" height="80" fill="white"/>
</clipPath>
</defs>
</svg>
