<svg width="40" height="40" viewBox="0 0 40 40" fill="none" xmlns="http://www.w3.org/2000/svg">
<path d="M38.829 12.9384L27.7896 1.89896C26.7425 0.851873 25.0388 0.851873 23.9917 1.89896L1.86234 24.0283C0.815252 25.0754 0.815252 26.7791 1.86234 27.8262L12.9017 38.8656C13.9488 39.9127 15.6526 39.9127 16.6997 38.8656L38.829 16.7363C39.8761 15.6892 39.8761 13.9855 38.829 12.9384ZM15.9401 38.106C15.3119 38.7342 14.2895 38.7342 13.6613 38.106L2.62192 27.0666C1.99375 26.4384 1.99374 25.416 2.62192 24.7879L24.7512 2.65854C25.3794 2.03037 26.4018 2.03037 27.03 2.65854L38.0694 13.698C38.6976 14.3261 38.6976 15.3485 38.0694 15.9767L15.9401 38.106Z" fill="#036761"/>
<path d="M29.2009 18.173L22.5545 11.5267C21.1341 10.1063 18.8227 10.1063 17.4023 11.5267C15.9819 12.9471 15.9819 15.2585 17.4023 16.6789L24.0486 23.3253C25.4691 24.7457 27.7805 24.7457 29.2009 23.3253C30.6213 21.9049 30.6213 19.5935 29.2009 18.173ZM18.1619 12.2863C19.1638 11.2844 20.7934 11.2848 21.795 12.2863L24.7383 15.2297L21.1049 18.8631L18.1615 15.9197C17.1596 14.9178 17.16 13.2882 18.1615 12.2866L18.1619 12.2863ZM24.8082 22.5657L21.8648 19.6223L25.4983 15.9889L28.4417 18.9322C29.4436 19.9341 29.4432 21.5638 28.4417 22.5653C27.4402 23.5668 25.8101 23.5668 24.8086 22.5653L24.8082 22.5657Z" fill="#036761"/>
<path d="M23.2891 24.0849L16.6427 17.4385C15.2223 16.0181 12.9109 16.0181 11.4904 17.4385C10.07 18.8589 10.07 21.1704 11.4904 22.5908L18.1368 29.2371C19.5572 30.6576 21.8686 30.6576 23.2891 29.2371C24.7095 27.8167 24.7095 25.5053 23.2891 24.0849ZM12.2496 18.1985C13.2515 17.1966 14.8812 17.197 15.8827 18.1985L18.8261 21.1419L15.1926 24.7753L12.2493 21.832C11.2474 20.8301 11.2478 19.2004 12.2493 18.1989L12.2496 18.1985ZM18.896 28.4779L15.9526 25.5345L19.5861 21.9011L22.5295 24.8445C23.5314 25.8464 23.531 27.476 22.5295 28.4776C21.528 29.4791 19.8979 29.4791 18.8964 28.4775L18.896 28.4779Z" fill="#036761"/>
<path d="M17.3768 29.9971L10.7305 23.3507C9.31005 21.9303 6.99864 21.9303 5.57822 23.3507C4.1578 24.7712 4.1578 27.0826 5.57822 28.503L12.2246 35.1494C13.645 36.5698 15.9564 36.5698 17.3768 35.1494C18.7973 33.7289 18.7973 31.4175 17.3768 29.9971ZM6.3378 24.1103C7.33969 23.1084 8.96938 23.1088 9.97089 24.1103L12.9143 27.0537L9.28081 30.6872L6.33743 27.7438C5.33553 26.7419 5.33591 25.1122 6.33742 24.1107L6.3378 24.1103ZM12.9838 34.3901L10.0404 31.4468L13.6739 27.8133L16.6172 30.7567C17.6191 31.7586 17.6188 33.3883 16.6172 34.3898C15.6157 35.3913 13.9857 35.3913 12.9842 34.3898L12.9838 34.3901Z" fill="#036761"/>
<path d="M35.1131 12.2608L28.4668 5.61446C27.0463 4.19404 24.7349 4.19404 23.3145 5.61446C21.8941 7.03488 21.8941 9.3463 23.3145 10.7667L29.9609 17.4131C31.3813 18.8335 33.6927 18.8335 35.1131 17.4131C36.5335 15.9927 36.5335 13.6812 35.1131 12.2608ZM24.0741 6.37405C25.076 5.37216 26.7057 5.37254 27.7072 6.37405L30.6506 9.31743L27.0171 12.9509L24.0737 10.0075C23.0718 9.00562 23.0722 7.37594 24.0737 6.37443L24.0741 6.37405ZM30.7201 16.6539L27.7767 13.7105L31.4101 10.077L34.3535 13.0204C35.3554 14.0223 35.355 15.652 34.3535 16.6535C33.352 17.655 31.7219 17.655 30.7204 16.6535L30.7201 16.6539Z" fill="#036761"/>
</svg>
