<svg width="56" height="57" viewBox="0 0 56 57" fill="none" xmlns="http://www.w3.org/2000/svg">
<rect y="8" width="49" height="49" rx="24.5" fill="#00857C"/>
<path d="M31.1756 41.6668H17.8297C16.9564 41.6668 16.2184 40.977 16.1446 40.1007L14.9207 25.1855C14.89 24.7069 15.0499 24.2346 15.3697 23.8866C15.6895 23.5386 16.1446 23.3335 16.612 23.3335H32.3933C32.8669 23.3335 33.3158 23.5324 33.6356 23.8866C33.9554 24.2346 34.1153 24.7132 34.0784 25.1855L32.8607 40.1007C32.7869 40.9832 32.0489 41.6668 31.1756 41.6668ZM16.612 24.2657C16.3968 24.2657 16.1938 24.3527 16.0462 24.5143C15.8986 24.6759 15.8248 24.8872 15.8433 25.1047L17.061 40.0199C17.0917 40.4177 17.43 40.7346 17.8297 40.7346H31.1756C31.5753 40.7346 31.9074 40.4239 31.9443 40.0199L33.1621 25.1047C33.1805 24.8872 33.1067 24.6759 32.9591 24.5143C32.8115 24.3527 32.6086 24.2657 32.3933 24.2657H16.612Z" fill="white"/>
<path d="M28.8078 31.7233H20.1976C19.9454 31.7233 19.7363 31.512 19.7363 31.2572V30.6358C19.7363 27.9821 21.8765 25.8194 24.5027 25.8194C27.1288 25.8194 29.269 27.9821 29.269 30.6358V31.2572C29.269 31.512 29.0599 31.7233 28.8078 31.7233ZM20.6588 30.7911H28.3465V30.6358C28.3465 28.4917 26.6245 26.7516 24.5027 26.7516C22.3809 26.7516 20.6588 28.4917 20.6588 30.6358V30.7911Z" fill="white"/>
<path d="M24.5027 31.7233C24.4289 31.7233 24.3612 31.7047 24.2936 31.6736C24.066 31.5555 23.9799 31.2759 24.0967 31.0459L25.2222 28.8335C25.3391 28.6036 25.6158 28.5165 25.8434 28.6346C26.0709 28.7527 26.157 29.0324 26.0402 29.2623L24.9147 31.4747C24.8348 31.6363 24.6687 31.7295 24.5027 31.7295V31.7233Z" fill="white"/>
<path d="M17.7375 26.7516C17.9922 26.7516 18.1988 26.5429 18.1988 26.2855C18.1988 26.0281 17.9922 25.8194 17.7375 25.8194C17.4827 25.8194 17.2762 26.0281 17.2762 26.2855C17.2762 26.5429 17.4827 26.7516 17.7375 26.7516Z" fill="white"/>
<path d="M31.2678 26.7516C31.5226 26.7516 31.7291 26.5429 31.7291 26.2855C31.7291 26.0281 31.5226 25.8194 31.2678 25.8194C31.0131 25.8194 30.8066 26.0281 30.8066 26.2855C30.8066 26.5429 31.0131 26.7516 31.2678 26.7516Z" fill="white"/>
<path d="M30.0378 39.181C30.2925 39.181 30.4991 38.9723 30.4991 38.7149C30.4991 38.4574 30.2925 38.2488 30.0378 38.2488C29.783 38.2488 29.5765 38.4574 29.5765 38.7149C29.5765 38.9723 29.783 39.181 30.0378 39.181Z" fill="white"/>
<path d="M18.9675 39.181C19.2223 39.181 19.4288 38.9723 19.4288 38.7149C19.4288 38.4574 19.2223 38.2488 18.9675 38.2488C18.7128 38.2488 18.5063 38.4574 18.5063 38.7149C18.5063 38.9723 18.7128 39.181 18.9675 39.181Z" fill="white"/>
<rect x="27" width="29" height="29" rx="14.5" fill="#081C1A"/>
<path d="M40.7192 20.5V10.26L41.8392 11.38H38.4792V9.3H43.3112V20.5H40.7192Z" fill="white"/>
</svg>
