<svg width="56" height="62" viewBox="0 0 56 62" fill="none" xmlns="http://www.w3.org/2000/svg">
<rect y="13" width="49" height="49" rx="24.5" fill="#00857C"/>
<path d="M26.787 32.1052L21.7971 31.0912C21.5336 31.0392 21.2623 31.0825 21.03 31.2167C20.7976 31.3508 20.6244 31.5642 20.5377 31.8183L19.9647 33.5321C19.7521 33.3193 19.5619 33.0754 19.4028 32.8C19.018 32.1334 18.8655 31.3872 18.9737 30.7035C19.0754 30.0553 19.4054 29.5383 19.8971 29.2545C20.9477 28.6479 22.4352 29.2491 23.2147 30.5992C23.3443 30.8236 23.6321 30.9023 23.8544 30.774C24.0766 30.6457 24.1524 30.3571 24.0228 30.1326C22.9842 28.3336 20.921 27.5751 19.4259 28.4383C18.685 28.866 18.197 29.6148 18.0489 30.5482C17.9073 31.4461 18.0999 32.4096 18.5947 33.2666C18.8735 33.7495 19.23 34.1648 19.6424 34.498L18.9243 36.6447C18.7457 37.1831 18.8045 37.7749 19.0892 38.268L23.3184 45.5931C23.9702 46.7221 25.4095 47.1154 26.5275 46.47L31.4943 43.6024C32.6122 42.9569 32.9913 41.5138 32.3395 40.3848L28.1103 33.0597C27.8256 32.5666 27.3425 32.2197 26.787 32.1052ZM31.5313 40.8514C31.924 41.5315 31.6965 42.3974 31.0231 42.7862L26.0529 45.6557C25.3794 46.0446 24.5158 45.8086 24.1232 45.1285L19.894 37.8033C19.7448 37.5449 19.7126 37.2325 19.8063 36.9516L20.4571 35.0071C20.5289 35.0381 20.6008 35.0692 20.6726 35.1003C21.5549 35.4388 22.4475 35.3905 23.1883 34.9628C23.4105 34.8345 23.4863 34.5459 23.3568 34.3214C23.2272 34.097 22.9393 34.0183 22.7171 34.1466C22.2221 34.4324 21.6126 34.4578 21.0005 34.2218C20.918 34.1878 20.8355 34.1538 20.7544 34.1145L21.4198 32.1252C21.4358 32.0751 21.4689 32.0469 21.4958 32.0314C21.5228 32.0158 21.5637 32.0013 21.6151 32.0124L26.605 33.0264C26.8951 33.0856 27.1496 33.2697 27.2988 33.5282L31.5279 40.8533L31.5313 40.8514Z" fill="white"/>
<path d="M25.8293 38.5028L24.9403 39.0161C24.6271 39.1969 24.222 39.0862 24.0394 38.7699C23.8568 38.4536 23.9635 38.0474 24.2766 37.8666L25.8425 36.9626C26.0647 36.8343 26.1405 36.5457 26.0109 36.3212C25.8813 36.0968 25.5935 36.0181 25.3712 36.1464L24.654 36.5605L24.3477 36.03C24.2181 35.8056 23.9303 35.7269 23.708 35.8552C23.4858 35.9836 23.41 36.2722 23.5396 36.4966L23.8458 37.0271L23.8054 37.0505C23.0444 37.4898 22.7895 38.4713 23.2312 39.2365C23.673 40.0017 24.6538 40.2697 25.4115 39.8322L26.3005 39.319C26.6136 39.1382 27.0188 39.2489 27.2014 39.5651C27.384 39.8814 27.2773 40.2876 26.9641 40.4684L25.368 41.3899C25.1457 41.5182 25.0699 41.8069 25.1995 42.0313C25.3291 42.2558 25.6169 42.3344 25.8392 42.2061L26.5867 41.7745L26.8989 42.3152C27.0285 42.5397 27.3164 42.6183 27.5386 42.49C27.7609 42.3617 27.8367 42.0731 27.7071 41.8486L27.3949 41.3079L27.4521 41.2749C28.1972 40.8311 28.4493 39.8603 28.0095 39.0985C27.5658 38.33 26.5869 38.0654 25.8293 38.5028Z" fill="white"/>
<rect x="27" width="29" height="29" rx="14.5" fill="#081C1A"/>
<path d="M37.3092 20.5V18.82L41.6293 14.74C41.9706 14.4307 42.2213 14.1533 42.3813 13.908C42.5413 13.6627 42.6479 13.4387 42.7013 13.236C42.7653 13.0333 42.7973 12.8467 42.7973 12.676C42.7973 12.228 42.6426 11.8867 42.3333 11.652C42.0346 11.4067 41.5919 11.284 41.0052 11.284C40.5359 11.284 40.0986 11.3747 39.6933 11.556C39.2986 11.7373 38.9626 12.02 38.6853 12.404L36.7973 11.188C37.2239 10.548 37.8213 10.0413 38.5893 9.668C39.3573 9.29467 40.2426 9.108 41.2453 9.108C42.0773 9.108 42.8026 9.24667 43.4213 9.524C44.0506 9.79067 44.5359 10.1693 44.8773 10.66C45.2293 11.1507 45.4053 11.7373 45.4053 12.42C45.4053 12.7827 45.3573 13.1453 45.2613 13.508C45.1759 13.86 44.9946 14.2333 44.7173 14.628C44.4506 15.0227 44.0559 15.4653 43.5333 15.956L39.9493 19.332L39.4533 18.388H45.7733V20.5H37.3092Z" fill="white"/>
</svg>
