<svg width="56" height="63" viewBox="0 0 56 63" fill="none" xmlns="http://www.w3.org/2000/svg">
<rect y="14" width="49" height="49" rx="24.5" fill="#00857C"/>
<path d="M34.775 40.975L32.525 38.725C32.225 38.425 31.775 38.425 31.475 38.725L24.5 45.7V49H27.8L34.775 42.025C35.075 41.725 35.075 41.275 34.775 40.975ZM27.2 47.5H26V46.3L29.75 42.55L30.95 43.75L27.2 47.5ZM32 42.7L30.8 41.5L32 40.3L33.2 41.5L32 42.7ZM20 43.75H21.5V45.25H20V43.75ZM23 40H26V41.5H23V40ZM20 40H21.5V41.5H20V40ZM23 36.25H29V37.75H23V36.25ZM20 36.25H21.5V37.75H20V36.25Z" fill="white"/>
<path d="M17.75 47.5V31.75H20V34H29V31.75H31.25V36.25H32.75V31.75C32.75 30.925 32.075 30.25 31.25 30.25H29V29.5C29 28.675 28.325 28 27.5 28H21.5C20.675 28 20 28.675 20 29.5V30.25H17.75C16.925 30.25 16.25 30.925 16.25 31.75V47.5C16.25 48.325 16.925 49 17.75 49H21.5V47.5H17.75ZM21.5 29.5H27.5V32.5H21.5V29.5Z" fill="white"/>
<rect x="27" width="29" height="29" rx="14.5" fill="#081C1A"/>
<path d="M41.0216 20.692C40.243 20.692 39.4696 20.5907 38.7016 20.388C37.9336 20.1747 37.283 19.876 36.7496 19.492L37.7576 17.508C38.1843 17.8173 38.6803 18.0627 39.2456 18.244C39.811 18.4253 40.3816 18.516 40.9576 18.516C41.6083 18.516 42.1203 18.388 42.4936 18.132C42.867 17.876 43.0536 17.524 43.0536 17.076C43.0536 16.6493 42.8883 16.3133 42.5576 16.068C42.227 15.8227 41.6936 15.7 40.9576 15.7H39.7736V13.988L42.8936 10.452L43.1816 11.38H37.3096V9.3H45.1496V10.98L42.0456 14.516L40.7336 13.764H41.4856C42.8616 13.764 43.9016 14.0733 44.6056 14.692C45.3096 15.3107 45.6616 16.1053 45.6616 17.076C45.6616 17.7053 45.4963 18.2973 45.1656 18.852C44.835 19.396 44.3283 19.8387 43.6456 20.18C42.963 20.5213 42.0883 20.692 41.0216 20.692Z" fill="white"/>
</svg>
