<svg width="216" height="62" viewBox="0 0 216 62" fill="none" xmlns="http://www.w3.org/2000/svg">
<rect x="1.5" y="1.5" width="213" height="59" rx="29.5" fill="#01A79F"/>
<rect x="1.5" y="1.5" width="213" height="59" rx="29.5" fill="url(#paint0_linear_1763_10494)"/>
<rect x="1.5" y="1.5" width="213" height="59" rx="29.5" stroke="white" stroke-width="3"/>
<path d="M68.17 24.4H71.05V37H68.656L62.374 29.35V37H59.494V24.4H61.906L68.17 32.05V24.4ZM80.1291 37.216C76.5471 37.216 74.4231 35.164 74.4231 31.456V24.4H77.3391V31.348C77.3391 33.742 78.3831 34.732 80.1471 34.732C81.9291 34.732 82.9551 33.742 82.9551 31.348V24.4H85.8351V31.456C85.8351 35.164 83.7111 37.216 80.1291 37.216ZM103.419 37H100.683L100.665 29.44L96.9567 35.668H95.6427L91.9527 29.602V37H89.2167V24.4H91.6287L96.3447 32.23L100.989 24.4H103.383L103.419 37ZM109.806 34.66H116.664V37H106.908V24.4H116.43V26.74H109.806V29.476H115.656V31.744H109.806V34.66ZM119.484 37V24.4H122.4V34.624H128.718V37H119.484ZM139.185 24.4H142.083L136.629 37H133.749L128.313 24.4H131.463L135.297 33.4L139.185 24.4ZM143.635 37V24.4H146.551V37H143.635ZM152.791 23.4076C154.962 23.4076 156.593 25.0492 156.593 27.1984C156.593 29.3476 154.919 31.0324 152.77 31.0324C150.62 31.0324 148.968 29.3476 148.968 27.22C148.968 25.0924 150.62 23.4076 152.791 23.4076ZM152.77 30.3304C154.53 30.3304 155.858 28.9588 155.858 27.1984C155.858 25.438 154.573 24.1096 152.791 24.1096C151.009 24.1096 149.713 25.4704 149.713 27.22C149.713 28.9696 151.009 30.3304 152.77 30.3304ZM154.778 26.6152C154.778 27.2308 154.498 27.6736 153.99 27.9112L154.908 29.3152H153.785L152.996 28.1056H152.953H152.251V29.3152H151.128V25.1248H152.953C154.098 25.1248 154.778 25.708 154.778 26.6152ZM152.24 27.2632H152.878C153.385 27.2632 153.677 27.0256 153.677 26.6152C153.677 26.194 153.385 25.9564 152.878 25.9564H152.24V27.2632Z" fill="white"/>
<defs>
<linearGradient id="paint0_linear_1763_10494" x1="-3.79613e-07" y1="31.049" x2="216" y2="30.9839" gradientUnits="userSpaceOnUse">
<stop stop-color="#081C1A"/>
<stop offset="1" stop-color="#01ACA3"/>
</linearGradient>
</defs>
</svg>
