<svg width="148" height="46" viewBox="0 0 148 46" fill="none" xmlns="http://www.w3.org/2000/svg">
<rect x="1.5" y="1.5" width="145" height="43" rx="21.5" fill="#01A79F"/>
<rect x="1.5" y="1.5" width="145" height="43" rx="21.5" fill="url(#paint0_linear_1763_8152)"/>
<rect x="1.5" y="1.5" width="145" height="43" rx="21.5" stroke="white" stroke-width="3"/>
<path d="M34.17 16.4H37.05V29H34.656L28.374 21.35V29H25.494V16.4H27.906L34.17 24.05V16.4ZM46.1291 29.216C42.5471 29.216 40.4231 27.164 40.4231 23.456V16.4H43.3391V23.348C43.3391 25.742 44.3831 26.732 46.1471 26.732C47.9291 26.732 48.9551 25.742 48.9551 23.348V16.4H51.8351V23.456C51.8351 27.164 49.7111 29.216 46.1291 29.216ZM69.4187 29H66.6827L66.6647 21.44L62.9567 27.668H61.6427L57.9527 21.602V29H55.2167V16.4H57.6287L62.3447 24.23L66.9887 16.4H69.3827L69.4187 29ZM75.8061 26.66H82.6641V29H72.9081V16.4H82.4301V18.74H75.8061V21.476H81.6561V23.744H75.8061V26.66ZM85.4842 29V16.4H88.4002V26.624H94.7182V29H85.4842ZM105.185 16.4H108.083L102.629 29H99.7486L94.3126 16.4H97.4626L101.297 25.4L105.185 16.4ZM109.635 29V16.4H112.551V29H109.635ZM118.791 15.4076C120.962 15.4076 122.593 17.0492 122.593 19.1984C122.593 21.3476 120.919 23.0324 118.77 23.0324C116.62 23.0324 114.968 21.3476 114.968 19.22C114.968 17.0924 116.62 15.4076 118.791 15.4076ZM118.77 22.3304C120.53 22.3304 121.858 20.9588 121.858 19.1984C121.858 17.438 120.573 16.1096 118.791 16.1096C117.009 16.1096 115.713 17.4704 115.713 19.22C115.713 20.9696 117.009 22.3304 118.77 22.3304ZM120.778 18.6152C120.778 19.2308 120.498 19.6736 119.99 19.9112L120.908 21.3152H119.785L118.996 20.1056H118.953H118.251V21.3152H117.128V17.1248H118.953C120.098 17.1248 120.778 17.708 120.778 18.6152ZM118.24 19.2632H118.878C119.385 19.2632 119.677 19.0256 119.677 18.6152C119.677 18.194 119.385 17.9564 118.878 17.9564H118.24V19.2632Z" fill="white"/>
<defs>
<linearGradient id="paint0_linear_1763_8152" x1="-2.60105e-07" y1="23.0363" x2="148" y2="22.9952" gradientUnits="userSpaceOnUse">
<stop stop-color="#081C1A"/>
<stop offset="1" stop-color="#01ACA3"/>
</linearGradient>
</defs>
</svg>
