<svg width="80" height="80" viewBox="0 0 80 80" fill="none" xmlns="http://www.w3.org/2000/svg">
<g clip-path="url(#clip0_1920_160)">
<mask id="mask0_1920_160" style="mask-type:luminance" maskUnits="userSpaceOnUse" x="0" y="0" width="80" height="80">
<path d="M80 0H0V80H80V0Z" fill="white"/>
</mask>
<g mask="url(#mask0_1920_160)">
<path d="M69.1159 40.0003C69.1159 23.9467 56.1008 10.9316 40.0472 10.9316C23.9936 10.9316 10.9785 23.9467 10.9785 40.0003C10.9785 56.0539 23.9936 69.069 40.0472 69.069C56.1008 69.069 69.1159 56.0539 69.1159 40.0003Z" fill="#E13A76"/>
</g>
<mask id="mask1_1920_160" style="mask-type:luminance" maskUnits="userSpaceOnUse" x="0" y="0" width="80" height="80">
<path d="M14.0349 66.0113C7.08756 59.0639 3.26348 49.8259 3.26348 40C3.26348 30.174 7.08756 20.936 14.0349 13.9887C20.9822 7.04136 30.2202 3.21727 40.0462 3.21727C49.8721 3.21727 59.1101 7.04136 66.0575 13.9887C73.0048 20.936 76.8289 30.174 76.8289 40C76.8289 49.8259 73.0048 59.0639 66.0575 66.0113C59.1101 72.9586 49.8721 76.7827 40.0462 76.7827C30.2202 76.7827 20.9822 72.9586 14.0349 66.0113ZM0.591797 40C0.591797 61.7874 18.2541 79.4496 40.0415 79.4496C61.8289 79.4496 79.4911 61.7874 79.4911 40C79.4911 18.2126 61.8336 0.550293 40.0462 0.550293C18.2588 0.550293 0.591797 18.2126 0.591797 40Z" fill="white"/>
</mask>
<g mask="url(#mask1_1920_160)">
<path d="M79.4911 0.550293H0.591797V79.4496H79.4911V0.550293Z" fill="url(#paint0_linear_1920_160)"/>
</g>
<mask id="mask2_1920_160" style="mask-type:luminance" maskUnits="userSpaceOnUse" x="0" y="0" width="80" height="80">
<path d="M80 0H0V80H80V0Z" fill="white"/>
</mask>
<g mask="url(#mask2_1920_160)">
<path d="M32.8465 58.603C31.6659 58.603 30.6076 57.9021 30.1466 56.8156C30.109 56.7215 26.2144 47.6857 21.1814 42.1683C20.6546 41.5898 20.3818 40.8372 20.4194 40.0564C20.4571 39.2756 20.7957 38.5512 21.3743 38.0244C21.9528 37.4976 22.7054 37.2248 23.4862 37.2624C24.2671 37.3 24.9914 37.6387 25.5182 38.2173C28.4345 41.4158 30.9227 45.4656 32.6349 48.603C35.3818 42.7328 40.8992 32.5776 49.5116 23.7159C50.1702 23.0432 50.8381 22.3753 51.506 21.7403C52.6772 20.6255 54.5399 20.6679 55.6546 21.8391C56.7694 23.0103 56.7271 24.873 55.5559 25.9877C55.3254 26.2088 54.9632 26.1994 54.7421 25.9689C54.521 25.7384 54.5305 25.3762 54.7609 25.1552C55.4759 24.4778 55.4994 23.3443 54.8221 22.6293C54.1448 21.9191 53.0112 21.8908 52.2962 22.5682C51.6377 23.1937 50.9792 23.8476 50.3348 24.5108C41.3037 33.8005 35.7205 44.5437 33.1993 50.1222L32.7148 51.1947L32.1692 50.1552C30.4947 46.9755 27.8371 42.46 24.6716 38.9887C24.3517 38.6359 23.9096 38.4289 23.4345 38.4101C22.9594 38.3913 22.5032 38.5512 22.1504 38.8758C21.7976 39.1956 21.5907 39.6378 21.5718 40.1128C21.5483 40.5879 21.713 41.0442 22.0375 41.3969C27.2539 47.1166 31.1767 56.2794 31.2144 56.3734C31.5013 57.0508 32.1833 57.4835 32.9171 57.4553C33.6509 57.4318 34.3047 56.952 34.5446 56.2605C34.5916 56.1288 39.3705 42.5917 49.9256 30.2775C50.1325 30.0376 50.4947 30.0094 50.7346 30.2163C50.9745 30.4233 51.0027 30.7855 50.7957 31.0254C40.41 43.1373 35.6734 56.5051 35.6264 56.6368C35.2266 57.7751 34.1542 58.5606 32.95 58.603C32.9171 58.603 32.8842 58.603 32.8559 58.603" fill="white"/>
</g>
</g>
<defs>
<linearGradient id="paint0_linear_1920_160" x1="1.8298" y1="40.6848" x2="80.4902" y2="40.6848" gradientUnits="userSpaceOnUse">
<stop stop-color="#CDCDCE"/>
<stop offset="0.09" stop-color="#8C8C91"/>
<stop offset="0.26" stop-color="#F7F8F8"/>
<stop offset="0.31" stop-color="#F2F3F3"/>
<stop offset="0.36" stop-color="#E6E7E7"/>
<stop offset="0.41" stop-color="#D1D3D3"/>
<stop offset="0.47" stop-color="#B4B6B7"/>
<stop offset="0.52" stop-color="#8F9193"/>
<stop offset="0.55" stop-color="#787A7C"/>
<stop offset="0.61" stop-color="#989999"/>
<stop offset="0.68" stop-color="#BFBDBB"/>
<stop offset="0.72" stop-color="#CECCC9"/>
<stop offset="1" stop-color="#CECCC9"/>
</linearGradient>
<clipPath id="clip0_1920_160">
<rect width="80" height="80" fill="white"/>
</clipPath>
</defs>
</svg>
