<svg width="80" height="80" viewBox="0 0 80 80" fill="none" xmlns="http://www.w3.org/2000/svg">
<g clip-path="url(#clip0_1920_141)">
<mask id="mask0_1920_141" style="mask-type:luminance" maskUnits="userSpaceOnUse" x="0" y="0" width="80" height="80">
<path d="M80 0H0V80H80V0Z" fill="white"/>
</mask>
<g mask="url(#mask0_1920_141)">
<path d="M69.1159 40.0003C69.1159 23.9467 56.1008 10.9316 40.0472 10.9316C23.9936 10.9316 10.9785 23.9467 10.9785 40.0003C10.9785 56.0539 23.9936 69.069 40.0472 69.069C56.1008 69.069 69.1159 56.0539 69.1159 40.0003Z" fill="#E13A76"/>
</g>
<mask id="mask1_1920_141" style="mask-type:luminance" maskUnits="userSpaceOnUse" x="0" y="0" width="80" height="80">
<path d="M14.036 66.0113C7.08872 59.0639 3.26464 49.8259 3.26464 40C3.26464 30.174 7.08872 20.936 14.036 13.9887C20.9834 7.04136 30.2214 3.21727 40.0473 3.21727C49.8733 3.21727 59.1113 7.04136 66.0586 13.9887C73.0059 20.936 76.8347 30.174 76.8347 40C76.8347 49.8259 73.0106 59.0639 66.0586 66.0113C59.1113 72.9586 49.8733 76.7827 40.0473 76.7827C30.2214 76.7827 20.9834 72.9586 14.036 66.0113ZM0.597656 40C0.597656 61.7874 18.2599 79.4496 40.0473 79.4496C61.8347 79.4496 79.497 61.7874 79.497 40C79.497 18.2126 61.8347 0.550293 40.0473 0.550293C18.2599 0.550293 0.597656 18.2126 0.597656 40Z" fill="white"/>
</mask>
<g mask="url(#mask1_1920_141)">
<path d="M79.497 0.550293H0.597656V79.4496H79.497V0.550293Z" fill="url(#paint0_linear_1920_141)"/>
</g>
<path d="M35.5079 27.004C36.7356 25.6823 38.2219 25.019 39.9623 25.019C41.7026 25.019 43.1843 25.6823 44.4166 27.004C45.6443 28.3257 46.2605 29.9156 46.2605 31.7688V45.3107C46.2605 47.1968 45.6443 48.8055 44.4166 50.1272C43.189 51.449 41.7026 52.1122 39.9623 52.1122C38.2219 52.1122 36.7356 51.4537 35.5079 50.1272C34.2802 48.8055 33.6641 47.2015 33.6641 45.3107V31.7688C33.6641 29.9156 34.2802 28.3257 35.5079 27.004ZM36.6368 48.9137C37.5634 49.9109 38.6735 50.4047 39.967 50.4047C41.2605 50.4047 42.3706 49.9062 43.2925 48.9137C44.2191 47.9165 44.6801 46.7171 44.6801 45.3107V31.7688C44.6801 30.3624 44.2144 29.1677 43.2925 28.1893C42.3659 27.211 41.2558 26.7218 39.967 26.7218C38.6782 26.7218 37.5634 27.211 36.6368 28.1893C35.7102 29.1677 35.2492 30.3624 35.2492 31.7688V45.3107C35.2492 46.7171 35.7102 47.9212 36.6368 48.9137Z" fill="white" stroke="#E13A76" stroke-width="0.39" stroke-miterlimit="10"/>
<path d="M49.416 36.2471C51.9371 39.7231 53.0284 41.2753 53.6351 42.122H53.6634C54.3924 41.1624 55.9117 39.1304 58.0989 36.2471H59.8299L54.5477 43.0815L59.924 50.3675H58.1036C55.9164 47.343 54.336 45.1982 53.6116 44.2104H53.5787C53.0002 45.0288 51.6361 46.9479 49.1478 50.3675H47.3887L52.765 43.1944L47.6333 36.2471H49.4254H49.416Z" fill="white"/>
<path d="M30.8697 51.3786H25.4229C25.0936 51.3786 24.8208 51.1246 24.8208 50.8095V39.9911H26.025V50.2404H30.2724V46.4351C30.2724 46.4351 30.2724 46.4069 30.2724 46.3881C30.2724 46.3551 30.5217 42.9167 27.7747 40.325C25.3006 37.992 24.8867 34.9722 24.8255 33.6976H21.6411C21.3119 33.6976 21.0391 33.4436 21.0391 33.1284V29.0786C21.0391 28.7634 21.3072 28.5094 21.6411 28.5094C24.882 28.5094 25.4229 27.7662 25.8086 26.1858C25.8744 25.9271 26.1143 25.7437 26.3918 25.7437H30.8697C31.2037 25.7437 31.4718 25.9977 31.4718 26.3128V40.0193H30.2677V26.8819H26.8528C26.246 28.8057 24.9996 29.5489 22.2385 29.6383V32.5546H25.4182C25.5828 32.5546 25.7427 32.6204 25.8556 32.7333C25.9685 32.8462 26.0297 33.0014 26.0202 33.1566C26.0202 33.1943 25.8556 36.9149 28.6167 39.516C31.6741 42.3993 31.4953 46.0776 31.4671 46.4539V50.8095C31.4671 51.1246 31.199 51.3786 30.865 51.3786" fill="white"/>
</g>
<defs>
<linearGradient id="paint0_linear_1920_141" x1="0.849773" y1="40.6472" x2="80.0144" y2="40.6472" gradientUnits="userSpaceOnUse">
<stop stop-color="#CDCDCE"/>
<stop offset="0.09" stop-color="#8C8C91"/>
<stop offset="0.26" stop-color="#F7F8F8"/>
<stop offset="0.31" stop-color="#F2F3F3"/>
<stop offset="0.36" stop-color="#E6E7E7"/>
<stop offset="0.41" stop-color="#D1D3D3"/>
<stop offset="0.47" stop-color="#B4B6B7"/>
<stop offset="0.52" stop-color="#8F9193"/>
<stop offset="0.55" stop-color="#787A7C"/>
<stop offset="0.61" stop-color="#989999"/>
<stop offset="0.68" stop-color="#BFBDBB"/>
<stop offset="0.72" stop-color="#CECCC9"/>
<stop offset="1" stop-color="#CECCC9"/>
</linearGradient>
<clipPath id="clip0_1920_141">
<rect width="80" height="80" fill="white"/>
</clipPath>
</defs>
</svg>
