<svg width="80" height="80" viewBox="0 0 80 80" fill="none" xmlns="http://www.w3.org/2000/svg">
<g clip-path="url(#clip0_1920_200)">
<mask id="mask0_1920_200" style="mask-type:luminance" maskUnits="userSpaceOnUse" x="0" y="0" width="80" height="80">
<path d="M80 0H0V80H80V0Z" fill="white"/>
</mask>
<g mask="url(#mask0_1920_200)">
<path d="M69.1159 40.0003C69.1159 23.9467 56.1008 10.9316 40.0472 10.9316C23.9936 10.9316 10.9785 23.9467 10.9785 40.0003C10.9785 56.0539 23.9936 69.069 40.0472 69.069C56.1008 69.069 69.1159 56.0539 69.1159 40.0003Z" fill="#E13A76"/>
</g>
<mask id="mask1_1920_200" style="mask-type:luminance" maskUnits="userSpaceOnUse" x="0" y="0" width="80" height="80">
<path d="M14.0349 66.0113C7.08756 59.0639 3.26348 49.8259 3.26348 40C3.26348 30.174 7.08756 20.936 14.0349 13.9887C20.9822 7.04136 30.2202 3.21727 40.0462 3.21727C49.8721 3.21727 59.1101 7.04136 66.0575 13.9887C73.0048 20.936 76.8289 30.174 76.8289 40C76.8289 49.8259 73.0048 59.0639 66.0575 66.0113C59.1101 72.9586 49.8721 76.7827 40.0462 76.7827C30.2202 76.7827 20.9822 72.9586 14.0349 66.0113ZM0.591797 40C0.591797 61.7874 18.2541 79.4496 40.0415 79.4496C61.8289 79.4496 79.4911 61.7874 79.4911 40C79.4911 18.2126 61.8336 0.550293 40.0415 0.550293C18.2494 0.550293 0.591797 18.2126 0.591797 40Z" fill="white"/>
</mask>
<g mask="url(#mask1_1920_200)">
<path d="M79.4911 0.550293H0.591797V79.4496H79.4911V0.550293Z" fill="url(#paint0_linear_1920_200)"/>
</g>
<path d="M58.0144 36.8812L53.64 32.5068L58.9692 27.1775L61.2364 29.4447C61.6456 29.8539 62.2618 29.8915 62.6193 29.5388C62.9768 29.186 62.9344 28.5651 62.5252 28.1559L53.0426 18.6733C52.6334 18.2641 52.0172 18.2264 51.6597 18.5792C51.3023 18.9367 51.3446 19.5529 51.7538 19.9621L54.021 22.2293L48.6917 27.5585L44.3173 23.1841C43.9081 22.7749 43.2919 22.7373 42.9344 23.09C42.577 23.4475 42.6193 24.0637 43.0285 24.4729L45.1828 26.6272L43.6306 28.1794L42.9109 28.8991L40.7849 31.0298L40.0652 31.7495L37.9344 33.8803L37.2148 34.5999L35.0887 36.7307L34.3691 37.4503L32.2383 39.5811L31.5186 40.3008L29.322 42.4974C29.0633 42.7561 29.0962 43.1982 29.3879 43.4946L31.4857 45.5924L29.1668 47.9113C28.9081 48.17 28.941 48.6122 29.2327 48.9085L30.3521 50.028L21.2646 59.1201C21.0671 59.3177 21.0859 59.6658 21.3164 59.8962C21.5469 60.122 21.8902 60.1455 22.0925 59.948L31.1847 50.8558L32.3041 51.9753C32.5958 52.2669 33.0426 52.2998 33.3013 52.0411L35.6202 49.7222L37.7181 51.82C38.0097 52.1117 38.4565 52.1446 38.7152 51.8859C38.7247 51.8765 38.7341 51.8624 38.7435 51.853L54.576 36.0204L56.7303 38.1747C57.1395 38.5839 57.7557 38.6216 58.1132 38.2688C58.4707 37.9113 58.4283 37.2951 58.0191 36.8859L58.0144 36.8812ZM54.8488 23.0571L58.1414 26.3497L52.8121 31.6789L49.5196 28.3864L54.8488 23.0571ZM32.6898 50.5124L30.6861 48.5087L32.4406 46.7542L34.4443 48.758L32.6898 50.5124ZM30.8413 43.0947L32.5723 41.3638L34.1433 42.9348C34.3738 43.1653 34.7171 43.1841 34.9194 42.9866C35.1169 42.789 35.0981 42.4409 34.8676 42.2105L33.2966 40.6394L35.4227 38.5134L36.9937 40.0844C37.2242 40.3102 37.5676 40.3337 37.7698 40.1361C37.9674 39.9386 37.9486 39.5905 37.7181 39.36L36.147 37.789L38.2731 35.6629L39.8441 37.234C40.0699 37.4598 40.418 37.4833 40.6202 37.2857C40.8178 37.0882 40.799 36.7401 40.5685 36.5096L38.9975 34.9386L41.1235 32.8125L42.6946 34.3836C42.925 34.6093 43.2684 34.6328 43.4707 34.4353C43.6682 34.2377 43.6494 33.8897 43.4189 33.6592L41.8479 32.0882L43.9739 29.9621L45.545 31.5331C45.7755 31.7589 46.1188 31.7824 46.3211 31.5849C46.5186 31.3873 46.4998 31.0392 46.2693 30.8088L44.6983 29.2377L46.2458 27.6902L53.5083 34.9527L38.1085 50.3525L30.846 43.09L30.8413 43.0947Z" fill="#FCF5F9" stroke="#E13A76" stroke-width="0.39" stroke-miterlimit="10"/>
</g>
<defs>
<linearGradient id="paint0_linear_1920_200" x1="2.31146" y1="40.6472" x2="80.9719" y2="40.6472" gradientUnits="userSpaceOnUse">
<stop stop-color="#CDCDCE"/>
<stop offset="0.09" stop-color="#8C8C91"/>
<stop offset="0.26" stop-color="#F7F8F8"/>
<stop offset="0.31" stop-color="#F2F3F3"/>
<stop offset="0.36" stop-color="#E6E7E7"/>
<stop offset="0.41" stop-color="#D1D3D3"/>
<stop offset="0.47" stop-color="#B4B6B7"/>
<stop offset="0.52" stop-color="#8F9193"/>
<stop offset="0.55" stop-color="#787A7C"/>
<stop offset="0.61" stop-color="#989999"/>
<stop offset="0.68" stop-color="#BFBDBB"/>
<stop offset="0.72" stop-color="#CECCC9"/>
<stop offset="1" stop-color="#CECCC9"/>
</linearGradient>
<clipPath id="clip0_1920_200">
<rect width="80" height="80" fill="white"/>
</clipPath>
</defs>
</svg>
