<svg width="426" height="22" viewBox="0 0 426 22" fill="none" xmlns="http://www.w3.org/2000/svg">
<line y1="10.5" x2="150" y2="10.5" stroke="white"/>
<path d="M204.302 17L201.386 4.4H204.392L206.93 15.578H205.04L212.132 4.4H215.156L207.182 17H204.302ZM218.58 17.216C217.896 17.216 217.23 17.15 216.582 17.018C215.946 16.898 215.364 16.73 214.836 16.514C214.32 16.298 213.882 16.064 213.522 15.812L214.71 13.562C215.106 13.838 215.526 14.078 215.97 14.282C216.426 14.474 216.9 14.624 217.392 14.732C217.884 14.828 218.376 14.876 218.868 14.876C219.408 14.876 219.87 14.816 220.254 14.696C220.65 14.576 220.95 14.408 221.154 14.192C221.37 13.976 221.478 13.712 221.478 13.4C221.478 13.112 221.364 12.878 221.136 12.698C220.908 12.518 220.608 12.368 220.236 12.248C219.876 12.116 219.474 11.99 219.03 11.87C218.586 11.75 218.136 11.612 217.68 11.456C217.236 11.288 216.828 11.084 216.456 10.844C216.096 10.592 215.802 10.274 215.574 9.89C215.346 9.506 215.232 9.026 215.232 8.45C215.232 7.586 215.466 6.836 215.934 6.2C216.414 5.564 217.086 5.072 217.95 4.724C218.814 4.364 219.828 4.184 220.992 4.184C221.844 4.184 222.648 4.28 223.404 4.472C224.16 4.652 224.808 4.916 225.348 5.264L224.25 7.496C223.77 7.172 223.236 6.932 222.648 6.776C222.06 6.608 221.454 6.524 220.83 6.524C220.266 6.524 219.78 6.59 219.372 6.722C218.976 6.854 218.67 7.04 218.454 7.28C218.25 7.508 218.148 7.772 218.148 8.072C218.148 8.372 218.256 8.618 218.472 8.81C218.7 8.99 219 9.146 219.372 9.278C219.744 9.398 220.152 9.518 220.596 9.638C221.04 9.758 221.484 9.896 221.928 10.052C222.372 10.208 222.78 10.406 223.152 10.646C223.524 10.886 223.824 11.192 224.052 11.564C224.28 11.924 224.394 12.38 224.394 12.932C224.394 13.796 224.154 14.552 223.674 15.2C223.194 15.836 222.516 16.334 221.64 16.694C220.776 17.042 219.756 17.216 218.58 17.216Z" fill="white"/>
<line x1="276" y1="10.5" x2="426" y2="10.5" stroke="white"/>
</svg>
